<?xml version="1.0" encoding="UTF-8"?>
<!DOCTYPE svg PUBLIC "-//W3C//DTD SVG 1.1//EN" "http://www.w3.org/Graphics/SVG/1.1/DTD/svg11.dtd">
<svg xmlns="http://www.w3.org/2000/svg" version="1.1" width="500px" height="500px" style="shape-rendering:geometricPrecision; text-rendering:geometricPrecision; image-rendering:optimizeQuality; fill-rule:evenodd; clip-rule:evenodd" xmlns:xlink="http://www.w3.org/1999/xlink">
<g><path style="opacity:1" fill="#ddecfe" d="M 400.5,95.5 C 370.329,95.1686 340.329,95.5019 310.5,96.5C 304.416,97.5873 301.082,101.254 300.5,107.5C 299.504,121.323 299.171,135.323 299.5,149.5C 296.575,149.54 293.909,148.707 291.5,147C 277.076,133.712 262.576,120.546 248,107.5C 241.679,110.038 235.179,111.871 228.5,113C 207.505,114.053 186.505,115.053 165.5,116C 146.337,117.041 128.003,121.375 110.5,129C 90.4245,138.744 78.2578,154.577 74,176.5C 73.7682,188.247 72.7682,199.914 71,211.5C 69.8635,215.243 68.5302,218.91 67,222.5C 55.4479,241.438 45.6146,261.271 37.5,282C 46.8581,313.23 62.5248,340.73 84.5,364.5C 79.5,364.5 74.5,364.5 69.5,364.5C 69.5,367.167 69.5,369.833 69.5,372.5C 71.8333,372.5 74.1667,372.5 76.5,372.5C 76.5,373.833 76.5,375.167 76.5,376.5C 76.5,384.5 76.5,392.5 76.5,400.5C 75.8337,396.647 75.167,392.647 74.5,388.5C 39.308,361.094 26.6414,325.594 36.5,282C 24.6704,222.485 35.1704,167.319 68,116.5C 97.1993,75.2078 136.366,61.7078 185.5,76C 208.387,82.4444 229.387,92.611 248.5,106.5C 262.008,97.5763 276.008,89.4096 290.5,82C 307.448,74.2456 325.115,71.9122 343.5,75C 363.955,78.2037 382.955,85.0371 400.5,95.5 Z"/></g>
<g><path style="opacity:1" fill="#9ac5fa" d="M 310.5,96.5 C 340.329,95.5019 370.329,95.1686 400.5,95.5C 409.839,95.3335 419.173,95.5002 428.5,96C 430.32,96.2004 431.653,97.0337 432.5,98.5C 430.199,97.9396 427.866,97.4396 425.5,97C 387.168,96.5 348.835,96.3333 310.5,96.5 Z"/></g>
<g><path style="opacity:1" fill="#61a8fd" d="M 310.5,96.5 C 348.835,96.3333 387.168,96.5 425.5,97C 427.866,97.4396 430.199,97.9396 432.5,98.5C 435.255,99.9612 437.088,102.295 438,105.5C 438.5,116.161 438.667,126.828 438.5,137.5C 438.666,146.506 438.5,155.506 438,164.5C 436.609,170.058 433.109,173.391 427.5,174.5C 399.159,174.167 370.825,174.5 342.5,175.5C 336.887,183.987 329.554,190.654 320.5,195.5C 320.167,195.167 319.833,194.833 319.5,194.5C 322.1,188.097 323.434,181.43 323.5,174.5C 318.156,174.666 312.823,174.499 307.5,174C 305,172.833 303.167,171 302,168.5C 300.535,148.234 300.035,127.901 300.5,107.5C 301.082,101.254 304.416,97.5873 310.5,96.5 Z"/></g>
<g><path style="opacity:1" fill="#c0dafe" d="M 300.5,107.5 C 300.035,127.901 300.535,148.234 302,168.5C 303.167,171 305,172.833 307.5,174C 312.823,174.499 318.156,174.666 323.5,174.5C 323.434,181.43 322.1,188.097 319.5,194.5C 319.833,194.833 320.167,195.167 320.5,195.5C 329.554,190.654 336.887,183.987 342.5,175.5C 370.825,174.5 399.159,174.167 427.5,174.5C 421.013,175.328 414.346,175.828 407.5,176C 416.051,181.284 423.384,187.951 429.5,196C 435.157,196.499 440.824,196.666 446.5,196.5C 449.713,196.19 452.713,196.523 455.5,197.5C 434.489,197.167 413.489,197.5 392.5,198.5C 391.39,203.111 391.223,207.778 392,212.5C 392.5,213 393,213.5 393.5,214C 410.163,214.5 426.83,214.667 443.5,214.5C 442.547,221.712 441.547,228.878 440.5,236C 440.426,241.963 441.259,247.796 443,253.5C 449.736,265.25 456.07,277.25 462,289.5C 467.195,300.276 469.529,311.609 469,323.5C 467.023,337.369 464.19,351.035 460.5,364.5C 443.833,364.5 427.167,364.5 410.5,364.5C 423.487,338.527 436.487,312.527 449.5,286.5C 449.043,285.702 448.376,285.369 447.5,285.5C 429.864,283.513 411.864,282.847 393.5,283.5C 391.935,277.129 389.602,271.129 386.5,265.5C 393.412,266.462 400.412,266.795 407.5,266.5C 408.446,270.392 409.946,274.059 412,277.5C 413.597,274.209 415.097,270.875 416.5,267.5C 422.807,266.669 429.141,266.169 435.5,266C 436.416,265.626 437.25,265.126 438,264.5C 439.611,255.268 439.945,245.935 439,236.5C 438.097,235.299 436.931,234.465 435.5,234C 419.5,233.333 403.5,233.333 387.5,234C 386.667,234.833 385.833,235.667 385,236.5C 384.5,245.16 384.334,253.827 384.5,262.5C 377.483,251.31 369.15,241.144 359.5,232C 357.473,230.121 355.14,228.954 352.5,228.5C 352.818,233.032 352.485,237.366 351.5,241.5C 351.5,241.167 351.5,240.833 351.5,240.5C 351.5,236.167 351.5,231.833 351.5,227.5C 358.818,228.184 362.818,224.85 363.5,217.5C 362.038,210.433 357.705,207.267 350.5,208C 345.935,210.056 343.602,213.556 343.5,218.5C 342.167,218.5 340.833,218.5 339.5,218.5C 339.063,216.926 338.063,215.759 336.5,215C 316.93,204.102 296.263,199.269 274.5,200.5C 276.391,189.821 276.724,179.154 275.5,168.5C 282.917,167.309 287.584,163.142 289.5,156C 289.302,152.599 287.635,150.266 284.5,149C 280.5,148.667 276.5,148.333 272.5,148C 274.527,146.604 274.86,144.938 273.5,143C 268.826,142.667 264.16,142.833 259.5,143.5C 260.718,142.839 262.051,142.172 263.5,141.5C 259.96,138.885 255.96,137.885 251.5,138.5C 222.543,135.271 210.543,148.271 215.5,177.5C 209.997,182.185 208.164,188.185 210,195.5C 212.369,200.383 216.203,203.05 221.5,203.5C 177.217,218.647 152.051,249.647 146,296.5C 145.333,306.833 145.333,317.167 146,327.5C 146.369,333.046 147.203,338.38 148.5,343.5C 148.5,350.5 148.5,357.5 148.5,364.5C 140.167,364.5 131.833,364.5 123.5,364.5C 126.733,363.105 129.233,360.772 131,357.5C 132.423,348.528 133.589,339.528 134.5,330.5C 128.833,330.5 123.167,330.5 117.5,330.5C 119.263,326.901 121.93,324.068 125.5,322C 128.895,320.885 132.061,319.385 135,317.5C 136.182,311.972 135.015,306.972 131.5,302.5C 134.454,298.928 137.954,295.928 142,293.5C 144.208,285.665 143.708,277.999 140.5,270.5C 139.94,276.742 138.44,282.742 136,288.5C 131.907,290.645 127.907,292.979 124,295.5C 119.87,304.376 117.203,313.71 116,323.5C 115.536,322.906 115.369,322.239 115.5,321.5C 115.76,311.128 115.427,300.794 114.5,290.5C 118.85,279.465 124.017,268.799 130,258.5C 130.667,252.167 130.667,245.833 130,239.5C 128.413,238.273 127.079,238.606 126,240.5C 124.326,244.201 122.659,247.868 121,251.5C 122.244,242.913 122.577,234.246 122,225.5C 119.772,220.358 116.438,219.025 112,221.5C 111.333,225.833 111.333,230.167 112,234.5C 113.662,240.15 115.162,245.817 116.5,251.5C 113.567,259.904 112.234,268.571 112.5,277.5C 108.876,267.566 105.209,257.566 101.5,247.5C 101.666,241.491 101.499,235.491 101,229.5C 97.7725,225.279 94.2725,221.446 90.5,218C 95.5371,209.059 93.2037,202.726 83.5,199C 81.2992,198.175 79.4659,198.675 78,200.5C 77.3333,209.833 77.3333,219.167 78,228.5C 80.9078,234.373 85.4078,238.54 91.5,241C 94.6317,244.145 97.6317,247.312 100.5,250.5C 105.562,261.018 109.228,272.018 111.5,283.5C 109.065,277.702 106.898,271.702 105,265.5C 103.46,261.581 101.293,258.081 98.5,255C 97.1268,254.125 95.6268,253.625 94,253.5C 91.5217,254.332 89.0217,254.499 86.5,254C 83.2916,249.753 80.4583,245.253 78,240.5C 74.4814,236.247 70.4814,235.58 66,238.5C 65.2499,247.013 67.9165,254.347 74,260.5C 74.0167,264.893 74.85,269.06 76.5,273C 83.5802,273.879 90.5802,275.212 97.5,277C 101.377,280.303 103.877,284.469 105,289.5C 107.196,292.125 110.03,293.125 113.5,292.5C 114.679,301.518 114.679,310.518 113.5,319.5C 109.205,306.035 101.539,294.868 90.5,286C 88.3225,284.798 85.9892,284.298 83.5,284.5C 83.3398,286.199 83.5065,287.866 84,289.5C 86.8333,292.333 89.6667,295.167 92.5,298C 81.0064,302.299 80.673,307.299 91.5,313C 100.985,315.348 108.318,320.515 113.5,328.5C 113.5,329.167 113.5,329.833 113.5,330.5C 107.167,330.5 100.833,330.5 94.5,330.5C 95.9105,338.782 97.0772,347.116 98,355.5C 98.8727,359.525 101.039,362.525 104.5,364.5C 97.8333,364.5 91.1667,364.5 84.5,364.5C 62.5248,340.73 46.8581,313.23 37.5,282C 45.6146,261.271 55.4479,241.438 67,222.5C 68.5302,218.91 69.8635,215.243 71,211.5C 72.7682,199.914 73.7682,188.247 74,176.5C 78.2578,154.577 90.4245,138.744 110.5,129C 128.003,121.375 146.337,117.041 165.5,116C 186.505,115.053 207.505,114.053 228.5,113C 235.179,111.871 241.679,110.038 248,107.5C 262.576,120.546 277.076,133.712 291.5,147C 293.909,148.707 296.575,149.54 299.5,149.5C 299.171,135.323 299.504,121.323 300.5,107.5 Z"/></g>
<g><path style="opacity:1" fill="#f3f8fb" d="M 320.5,115.5 C 339.836,115.333 359.17,115.5 378.5,116C 381.167,117.667 381.167,119.333 378.5,121C 359.167,121.667 339.833,121.667 320.5,121C 319.248,119.172 319.248,117.339 320.5,115.5 Z"/></g>
<g><path style="opacity:1" fill="#f2f8fa" d="M 388.5,115.5 C 398.172,115.334 407.839,115.5 417.5,116C 420.167,117.667 420.167,119.333 417.5,121C 407.833,121.667 398.167,121.667 388.5,121C 387.248,119.172 387.248,117.339 388.5,115.5 Z"/></g>
<g><path style="opacity:1" fill="#c6dffc" d="M 319.5,133.5 C 352.5,133.5 385.5,133.5 418.5,133.5C 418.5,134.833 418.5,136.167 418.5,137.5C 385.5,137.5 352.5,137.5 319.5,137.5C 319.5,136.167 319.5,134.833 319.5,133.5 Z"/></g>
<g><path style="opacity:1" fill="#293f7d" d="M 251.5,138.5 C 232.413,143.588 221.413,155.922 218.5,175.5C 217.71,176.401 216.71,177.068 215.5,177.5C 210.543,148.271 222.543,135.271 251.5,138.5 Z"/></g>
<g><path style="opacity:0.998" fill="#ddecfe" d="M 438.5,137.5 C 442.68,145.197 445.18,153.53 446,162.5C 447.359,173.838 447.525,185.172 446.5,196.5C 440.824,196.666 435.157,196.499 429.5,196C 423.384,187.951 416.051,181.284 407.5,176C 414.346,175.828 421.013,175.328 427.5,174.5C 433.109,173.391 436.609,170.058 438,164.5C 438.5,155.506 438.666,146.506 438.5,137.5 Z"/></g>
<g><path style="opacity:1" fill="#daddea" d="M 251.5,138.5 C 255.96,137.885 259.96,138.885 263.5,141.5C 262.051,142.172 260.718,142.839 259.5,143.5C 242.167,148.167 231.167,159.167 226.5,176.5C 223.946,175.612 221.279,175.279 218.5,175.5C 221.413,155.922 232.413,143.588 251.5,138.5 Z"/></g>
<g><path style="opacity:1" fill="#263c7b" d="M 275.5,168.5 C 271.486,168.666 267.486,168.499 263.5,168C 255.723,165.278 247.723,163.778 239.5,163.5C 239.613,170.262 237.28,175.928 232.5,180.5C 230.754,178.748 228.754,177.415 226.5,176.5C 231.167,159.167 242.167,148.167 259.5,143.5C 264.16,142.833 268.826,142.667 273.5,143C 274.86,144.938 274.527,146.604 272.5,148C 276.5,148.333 280.5,148.667 284.5,149C 287.635,150.266 289.302,152.599 289.5,156C 287.584,163.142 282.917,167.309 275.5,168.5 Z"/></g>
<g><path style="opacity:1" fill="#d0e6fd" d="M 319.5,143.5 C 352.5,143.5 385.5,143.5 418.5,143.5C 418.5,144.5 418.5,145.5 418.5,146.5C 385.5,146.5 352.5,146.5 319.5,146.5C 319.5,145.5 319.5,144.5 319.5,143.5 Z"/></g>
<g><path style="opacity:1" fill="#d0e6fd" d="M 319.5,153.5 C 345.5,153.5 371.5,153.5 397.5,153.5C 397.5,154.5 397.5,155.5 397.5,156.5C 371.5,156.5 345.5,156.5 319.5,156.5C 319.5,155.5 319.5,154.5 319.5,153.5 Z"/></g>
<g><path style="opacity:1" fill="#fa9c8c" d="M 275.5,168.5 C 276.724,179.154 276.391,189.821 274.5,200.5C 273.449,210.121 268.782,217.288 260.5,222C 257.183,222.498 253.85,222.665 250.5,222.5C 243.043,221.782 237.71,218.116 234.5,211.5C 235.833,212.167 237.167,212.833 238.5,213.5C 240.707,217.4 243.874,218.4 248,216.5C 247.683,211.385 244.85,209.385 239.5,210.5C 234.969,209.064 231.302,206.397 228.5,202.5C 234.68,195.999 236.014,188.666 232.5,180.5C 237.28,175.928 239.613,170.262 239.5,163.5C 247.723,163.778 255.723,165.278 263.5,168C 267.486,168.499 271.486,168.666 275.5,168.5 Z"/></g>
<g><path style="opacity:1" fill="#fcfdfd" d="M 127.5,170.5 C 145.503,170.333 163.503,170.5 181.5,171C 182.333,171.833 183.167,172.667 184,173.5C 184.179,176.553 184.679,179.553 185.5,182.5C 189.619,184.059 193.619,185.893 197.5,188C 193.5,189.667 189.5,191.333 185.5,193C 184.718,195.74 184.218,198.574 184,201.5C 183.5,203.333 182.333,204.5 180.5,205C 162.833,205.667 145.167,205.667 127.5,205C 126.667,204.167 125.833,203.333 125,202.5C 124.333,192.833 124.333,183.167 125,173.5C 126.045,172.627 126.878,171.627 127.5,170.5 Z"/></g>
<g><path style="opacity:1" fill="#f4f5f6" d="M 218.5,175.5 C 221.279,175.279 223.946,175.612 226.5,176.5C 228.754,177.415 230.754,178.748 232.5,180.5C 236.014,188.666 234.68,195.999 228.5,202.5C 231.302,206.397 234.969,209.064 239.5,210.5C 238.89,211.391 238.557,212.391 238.5,213.5C 237.167,212.833 235.833,212.167 234.5,211.5C 234.167,211.5 233.833,211.5 233.5,211.5C 231.381,209.6 229.047,207.934 226.5,206.5C 225.656,204.241 223.989,203.241 221.5,203.5C 216.203,203.05 212.369,200.383 210,195.5C 208.164,188.185 209.997,182.185 215.5,177.5C 216.71,177.068 217.71,176.401 218.5,175.5 Z"/></g>
<g><path style="opacity:1" fill="#474579" d="M 248.5,182.5 C 250.857,182.337 253.19,182.503 255.5,183C 255.957,183.414 256.291,183.914 256.5,184.5C 253.5,185.833 250.5,185.833 247.5,184.5C 247.863,183.817 248.196,183.15 248.5,182.5 Z"/></g>
<g><path style="opacity:1" fill="#414378" d="M 267.5,183.5 C 269.977,183.051 271.977,183.717 273.5,185.5C 271.167,186.833 268.833,186.833 266.5,185.5C 266.863,184.817 267.196,184.15 267.5,183.5 Z"/></g>
<g><path style="opacity:1" fill="#344680" d="M 164.5,184.5 C 169.493,184.997 170.493,187.164 167.5,191C 162.382,190.824 161.382,188.658 164.5,184.5 Z"/></g>
<g><path style="opacity:1" fill="#2b3f7c" d="M 152.5,184.5 C 157.159,184.015 158.492,185.848 156.5,190C 154.866,190.494 153.199,190.66 151.5,190.5C 151.325,188.379 151.659,186.379 152.5,184.5 Z"/></g>
<g><path style="opacity:1" fill="#344780" d="M 141.5,184.5 C 146.493,184.997 147.493,187.164 144.5,191C 139.382,190.824 138.382,188.658 141.5,184.5 Z"/></g>
<g><path style="opacity:1" fill="#3b4078" d="M 251.5,188.5 C 255.35,188.701 256.35,190.534 254.5,194C 253.207,194.49 251.873,194.657 250.5,194.5C 250.325,192.379 250.659,190.379 251.5,188.5 Z"/></g>
<g><path style="opacity:1" fill="#ab6c6a" d="M 262.5,186.5 C 263.124,186.917 263.457,187.584 263.5,188.5C 262.837,191.806 262.337,195.139 262,198.5C 261.238,194.413 261.404,190.413 262.5,186.5 Z"/></g>
<g><path style="opacity:1" fill="#3d427a" d="M 267.5,189.5 C 268.5,189.5 269.5,189.5 270.5,189.5C 270.662,191.527 270.495,193.527 270,195.5C 267.605,196.798 266.438,195.965 266.5,193C 266.648,191.744 266.982,190.577 267.5,189.5 Z"/></g>
<g><path style="opacity:1" fill="#2c417f" d="M 455.5,197.5 C 456.75,197.577 457.583,198.244 458,199.5C 461.675,211.989 457.175,216.989 444.5,214.5C 444.167,214.5 443.833,214.5 443.5,214.5C 426.83,214.667 410.163,214.5 393.5,214C 393,213.5 392.5,213 392,212.5C 391.223,207.778 391.39,203.111 392.5,198.5C 413.489,197.5 434.489,197.167 455.5,197.5 Z"/></g>
<g><path style="opacity:1" fill="#a6c8fe" d="M 339.5,218.5 C 332.313,218.175 325.313,218.509 318.5,219.5C 317.662,219.842 317.328,220.508 317.5,221.5C 317.5,228.167 317.5,234.833 317.5,241.5C 317.5,242.167 317.833,242.5 318.5,242.5C 329.5,243.833 340.5,243.833 351.5,242.5C 351.5,242.167 351.5,241.833 351.5,241.5C 352.485,237.366 352.818,233.032 352.5,228.5C 355.14,228.954 357.473,230.121 359.5,232C 369.15,241.144 377.483,251.31 384.5,262.5C 385.167,263.5 385.833,264.5 386.5,265.5C 389.602,271.129 391.935,277.129 393.5,283.5C 371.157,283.167 348.823,283.5 326.5,284.5C 319.383,301.401 311.717,318.068 303.5,334.5C 301.203,332.706 299.037,330.706 297,328.5C 296.128,310.158 295.128,291.825 294,273.5C 293.698,261.917 289.864,251.751 282.5,243C 274.301,238.101 265.634,234.267 256.5,231.5C 256.158,230.662 255.492,230.328 254.5,230.5C 253.292,229.766 251.959,229.433 250.5,229.5C 250.5,228.833 250.5,228.167 250.5,227.5C 250.5,225.833 250.5,224.167 250.5,222.5C 253.85,222.665 257.183,222.498 260.5,222C 268.782,217.288 273.449,210.121 274.5,200.5C 296.263,199.269 316.93,204.102 336.5,215C 338.063,215.759 339.063,216.926 339.5,218.5 Z"/></g>
<g><path style="opacity:1" fill="#6cadfc" d="M 101.5,247.5 C 99.7742,245.058 98.2742,242.391 97,239.5C 96.3457,238.304 95.8457,238.304 95.5,239.5C 97.4526,243.069 99.1192,246.736 100.5,250.5C 97.6317,247.312 94.6317,244.145 91.5,241C 85.4078,238.54 80.9078,234.373 78,228.5C 77.3333,219.167 77.3333,209.833 78,200.5C 79.4659,198.675 81.2992,198.175 83.5,199C 93.2037,202.726 95.5371,209.059 90.5,218C 94.2725,221.446 97.7725,225.279 101,229.5C 101.499,235.491 101.666,241.491 101.5,247.5 Z"/></g>
<g><path style="opacity:1" fill="#b2b9cc" d="M 399.5,201.5 C 398,204.461 398.333,207.128 400.5,209.5C 400.44,210.043 400.107,210.376 399.5,210.5C 398.749,209.624 398.249,208.624 398,207.5C 397.107,208.711 396.274,208.711 395.5,207.5C 396.833,206.167 396.833,204.833 395.5,203.5C 396.274,202.289 397.107,202.289 398,203.5C 398.278,202.584 398.778,201.918 399.5,201.5 Z"/></g>
<g><path style="opacity:1" fill="#adb5c8" d="M 411.5,201.5 C 410,204.461 410.333,207.128 412.5,209.5C 412.44,210.043 412.107,210.376 411.5,210.5C 410.281,209.354 408.948,208.354 407.5,207.5C 410.167,206.167 410.167,204.833 407.5,203.5C 408.274,202.289 409.107,202.289 410,203.5C 410.278,202.584 410.778,201.918 411.5,201.5 Z"/></g>
<g><path style="opacity:1" fill="#a5c8fd" d="M 221.5,203.5 C 223.989,203.241 225.656,204.241 226.5,206.5C 225.436,212.111 224.603,217.778 224,223.5C 223.208,225.644 221.708,226.977 219.5,227.5C 217.152,227.592 215.486,228.592 214.5,230.5C 213.533,229.194 212.199,228.527 210.5,228.5C 209.833,228.833 209.167,229.167 208.5,229.5C 196.533,232.151 185.533,236.984 175.5,244C 168.938,251.627 164.938,260.461 163.5,270.5C 159.452,270.441 156.285,272.108 154,275.5C 151.398,279.474 149.898,283.807 149.5,288.5C 148.503,306.659 148.17,324.992 148.5,343.5C 147.203,338.38 146.369,333.046 146,327.5C 145.333,317.167 145.333,306.833 146,296.5C 152.051,249.647 177.217,218.647 221.5,203.5 Z"/></g>
<g><path style="opacity:1" fill="#eaeef0" d="M 399.5,201.5 C 400.1,204.625 401.267,204.958 403,202.5C 403.507,203.996 403.007,205.163 401.5,206C 402.308,206.308 402.975,206.808 403.5,207.5C 402.726,208.711 401.893,208.711 401,207.5C 400.536,208.094 400.369,208.761 400.5,209.5C 398.333,207.128 398,204.461 399.5,201.5 Z"/></g>
<g><path style="opacity:1" fill="#e7eaef" d="M 411.5,201.5 C 412.1,204.625 413.267,204.958 415,202.5C 416.914,203.676 416.748,204.676 414.5,205.5C 416.011,207.838 415.677,208.504 413.5,207.5C 412.702,207.957 412.369,208.624 412.5,209.5C 410.333,207.128 410,204.461 411.5,201.5 Z"/></g>
<g><path style="opacity:1" fill="#e7eaef" d="M 423.5,201.5 C 424.268,202.263 424.768,203.263 425,204.5C 425.718,203.549 426.551,203.383 427.5,204C 426.788,205.425 426.621,206.925 427,208.5C 425.284,207.448 424.284,208.114 424,210.5C 423.716,208.114 422.716,207.448 421,208.5C 420.508,207.451 420.674,206.451 421.5,205.5C 419.252,204.676 419.086,203.676 421,202.5C 422.908,205.332 423.741,204.999 423.5,201.5 Z"/></g>
<g><path style="opacity:1" fill="#d3d8e1" d="M 435.5,201.5 C 436.931,203.268 438.597,203.935 440.5,203.5C 437.833,204.833 437.833,206.167 440.5,207.5C 439.052,208.354 437.719,209.354 436.5,210.5C 435.833,209.5 435.167,208.5 434.5,207.5C 433.604,208.506 432.938,208.506 432.5,207.5C 433.833,206.167 433.833,204.833 432.5,203.5C 433.355,202.707 434.189,203.04 435,204.5C 435.483,203.552 435.649,202.552 435.5,201.5 Z"/></g>
<g><path style="opacity:1" fill="#5a93e0" d="M 447.5,201.5 C 448.931,203.268 450.597,203.935 452.5,203.5C 449.833,204.833 449.833,206.167 452.5,207.5C 451.726,208.711 450.893,208.711 450,207.5C 449,211.5 448,211.5 447,207.5C 446.107,208.711 445.274,208.711 444.5,207.5C 447.028,206.483 447.028,205.316 444.5,204C 445.449,203.383 446.282,203.549 447,204.5C 447.483,203.552 447.649,202.552 447.5,201.5 Z"/></g>
<g><path style="opacity:1" fill="#373f78" d="M 253.5,207.5 C 257.226,207.177 260.893,207.511 264.5,208.5C 261.875,210.081 260.542,212.415 260.5,215.5C 255.303,215.305 252.97,212.638 253.5,207.5 Z"/></g>
<g><path style="opacity:1" fill="#fc9e8d" d="M 226.5,206.5 C 229.047,207.934 231.381,209.6 233.5,211.5C 232.475,211.897 232.308,212.563 233,213.5C 236.85,220.189 242.35,224.855 249.5,227.5C 249.666,232.179 249.499,236.845 249,241.5C 248.196,242.804 247.029,243.471 245.5,243.5C 234.909,241.208 226.242,235.875 219.5,227.5C 221.708,226.977 223.208,225.644 224,223.5C 224.603,217.778 225.436,212.111 226.5,206.5 Z"/></g>
<g><path style="opacity:1" fill="#f9654a" d="M 351.5,227.5 C 349.716,227.107 348.05,226.441 346.5,225.5C 346.5,224.833 346.167,224.5 345.5,224.5C 344.27,222.703 343.604,220.703 343.5,218.5C 343.602,213.556 345.935,210.056 350.5,208C 357.705,207.267 362.038,210.433 363.5,217.5C 362.818,224.85 358.818,228.184 351.5,227.5 Z"/></g>
<g><path style="opacity:1" fill="#313f7a" d="M 239.5,210.5 C 244.85,209.385 247.683,211.385 248,216.5C 243.874,218.4 240.707,217.4 238.5,213.5C 238.557,212.391 238.89,211.391 239.5,210.5 Z"/></g>
<g><path style="opacity:0.999" fill="#ddecfe" d="M 443.5,214.5 C 443.833,214.5 444.167,214.5 444.5,214.5C 455.498,233.652 463.664,253.985 469,275.5C 469.735,279.813 470.235,284.147 470.5,288.5C 471.006,307.566 470.339,326.566 468.5,345.5C 467.294,352.115 465.294,358.449 462.5,364.5C 461.833,364.5 461.167,364.5 460.5,364.5C 464.19,351.035 467.023,337.369 469,323.5C 469.529,311.609 467.195,300.276 462,289.5C 456.07,277.25 449.736,265.25 443,253.5C 441.259,247.796 440.426,241.963 440.5,236C 441.547,228.878 442.547,221.712 443.5,214.5 Z"/></g>
<g><path style="opacity:1" fill="#f9d0c7" d="M 354.5,213.5 C 360.261,213.709 360.594,214.542 355.5,216C 359.318,216.613 360.318,218.613 358.5,222C 353.923,222.404 353.59,221.57 357.5,219.5C 356.675,218.614 355.675,218.281 354.5,218.5C 354.5,216.833 354.5,215.167 354.5,213.5 Z"/></g>
<g><path style="opacity:1" fill="#96646a" d="M 233.5,211.5 C 233.833,211.5 234.167,211.5 234.5,211.5C 237.71,218.116 243.043,221.782 250.5,222.5C 250.5,224.167 250.5,225.833 250.5,227.5C 250.167,227.5 249.833,227.5 249.5,227.5C 242.35,224.855 236.85,220.189 233,213.5C 232.308,212.563 232.475,211.897 233.5,211.5 Z"/></g>
<g><path style="opacity:1" fill="#f9fafb" d="M 318.5,219.5 C 325.313,218.509 332.313,218.175 339.5,218.5C 340.833,218.5 342.167,218.5 343.5,218.5C 343.604,220.703 344.27,222.703 345.5,224.5C 341.866,226.965 338.366,229.632 335,232.5C 329.349,228.347 323.849,224.014 318.5,219.5 Z"/></g>
<g><path style="opacity:1" fill="#f9ccc2" d="M 348.5,213.5 C 349.822,213.33 350.989,213.663 352,214.5C 352.667,216.833 352.667,219.167 352,221.5C 350.667,222.833 349.333,222.833 348,221.5C 347.278,218.739 347.445,216.073 348.5,213.5 Z"/></g>
<g><path style="opacity:1" fill="#f36a4c" d="M 348.5,218.5 C 350.337,218.639 350.67,219.306 349.5,220.5C 348.702,220.043 348.369,219.376 348.5,218.5 Z"/></g>
<g><path style="opacity:1" fill="#f7f9fa" d="M 317.5,221.5 C 321.468,223.832 325.134,226.665 328.5,230C 325.331,234.335 321.664,238.168 317.5,241.5C 317.5,234.833 317.5,228.167 317.5,221.5 Z"/></g>
<g><path style="opacity:1" fill="#8490b1" d="M 318.5,219.5 C 323.849,224.014 329.349,228.347 335,232.5C 338.366,229.632 341.866,226.965 345.5,224.5C 346.167,224.5 346.5,224.833 346.5,225.5C 344.351,226.748 342.351,228.248 340.5,230C 344.036,233.704 347.702,237.204 351.5,240.5C 351.5,240.833 351.5,241.167 351.5,241.5C 351.5,241.833 351.5,242.167 351.5,242.5C 347.52,238.855 343.52,235.189 339.5,231.5C 338.126,232.711 336.626,233.711 335,234.5C 333.3,233.073 331.467,232.24 329.5,232C 325.964,235.704 322.298,239.204 318.5,242.5C 317.833,242.5 317.5,242.167 317.5,241.5C 321.664,238.168 325.331,234.335 328.5,230C 325.134,226.665 321.468,223.832 317.5,221.5C 317.328,220.508 317.662,219.842 318.5,219.5 Z"/></g>
<g><path style="opacity:1" fill="#f8f8f8" d="M 346.5,225.5 C 348.05,226.441 349.716,227.107 351.5,227.5C 351.5,231.833 351.5,236.167 351.5,240.5C 347.702,237.204 344.036,233.704 340.5,230C 342.351,228.248 344.351,226.748 346.5,225.5 Z"/></g>
<g><path style="opacity:1" fill="#fcfcfc" d="M 219.5,227.5 C 226.242,235.875 234.909,241.208 245.5,243.5C 247.029,243.471 248.196,242.804 249,241.5C 249.499,236.845 249.666,232.179 249.5,227.5C 249.833,227.5 250.167,227.5 250.5,227.5C 250.5,228.167 250.5,228.833 250.5,229.5C 254.456,239.773 256.956,250.439 258,261.5C 261.159,284.058 262.659,306.724 262.5,329.5C 262.5,330.167 262.5,330.833 262.5,331.5C 262.5,335.833 262.5,340.167 262.5,344.5C 257.5,344.5 252.5,344.5 247.5,344.5C 247.53,343.503 247.03,342.836 246,342.5C 242.106,341.258 238.272,339.924 234.5,338.5C 234.5,338.167 234.5,337.833 234.5,337.5C 234.5,336.167 234.5,334.833 234.5,333.5C 234.806,330.615 234.473,327.948 233.5,325.5C 234.073,292.369 227.739,260.702 214.5,230.5C 215.486,228.592 217.152,227.592 219.5,227.5 Z"/></g>
<g><path style="opacity:1" fill="#223a7a" d="M 208.5,229.5 C 207.667,243.493 207.5,257.493 208,271.5C 211.667,276.5 216,280.833 221,284.5C 220.075,292.465 219.408,300.465 219,308.5C 222.078,314.991 225.412,321.325 229,327.5C 230.331,329.996 232.164,331.996 234.5,333.5C 234.5,334.833 234.5,336.167 234.5,337.5C 221.515,333.01 208.515,328.51 195.5,324C 193.893,322.951 193.227,321.451 193.5,319.5C 192.596,320.209 192.263,321.209 192.5,322.5C 189.314,322.105 186.314,321.105 183.5,319.5C 183.167,319.667 182.833,319.833 182.5,320C 199.494,327.054 216.827,333.221 234.5,338.5C 238.272,339.924 242.106,341.258 246,342.5C 247.03,342.836 247.53,343.503 247.5,344.5C 243.977,346.873 241.977,350.207 241.5,354.5C 240.596,355.209 240.263,356.209 240.5,357.5C 238.833,357.5 237.167,357.5 235.5,357.5C 213.694,358.387 192.361,355.72 171.5,349.5C 164.129,346.962 159.295,341.962 157,334.5C 156.698,312.917 158.864,291.584 163.5,270.5C 164.938,260.461 168.938,251.627 175.5,244C 185.533,236.984 196.533,232.151 208.5,229.5 Z"/></g>
<g><path style="opacity:1" fill="#263c7b" d="M 210.5,228.5 C 212.199,228.527 213.533,229.194 214.5,230.5C 227.739,260.702 234.073,292.369 233.5,325.5C 233.66,327.199 233.494,328.866 233,330.5C 227.907,323.32 223.574,315.653 220,307.5C 221,300.167 222,292.833 223,285.5C 218.721,281.221 214.387,276.887 210,272.5C 209.293,257.817 209.46,243.151 210.5,228.5 Z"/></g>
<g><path style="opacity:1" fill="#f8fafb" d="M 351.5,242.5 C 340.5,243.833 329.5,243.833 318.5,242.5C 322.298,239.204 325.964,235.704 329.5,232C 331.467,232.24 333.3,233.073 335,234.5C 336.626,233.711 338.126,232.711 339.5,231.5C 343.52,235.189 347.52,238.855 351.5,242.5 Z"/></g>
<g><path style="opacity:1" fill="#243b7b" d="M 250.5,229.5 C 251.959,229.433 253.292,229.766 254.5,230.5C 256.916,235.667 259.582,240.667 262.5,245.5C 261.04,240.582 259.04,235.915 256.5,231.5C 265.634,234.267 274.301,238.101 282.5,243C 289.864,251.751 293.698,261.917 294,273.5C 295.128,291.825 296.128,310.158 297,328.5C 299.037,330.706 301.203,332.706 303.5,334.5C 300.454,342.262 297.121,349.929 293.5,357.5C 292.311,358.429 290.978,358.762 289.5,358.5C 287.26,353.593 283.927,349.593 279.5,346.5C 279.737,318.153 279.237,289.82 278,261.5C 278.16,289.851 277.327,317.851 275.5,345.5C 274.5,345.5 273.5,345.5 272.5,345.5C 269.193,344.949 265.86,344.616 262.5,344.5C 262.5,340.167 262.5,335.833 262.5,331.5C 264.648,328.597 266.148,325.264 267,321.5C 270.156,312.396 271.489,303.062 271,293.5C 269.058,289.931 266.892,286.598 264.5,283.5C 267.177,288.025 269.177,292.859 270.5,298C 268.98,308.915 266.313,319.415 262.5,329.5C 262.659,306.724 261.159,284.058 258,261.5C 256.956,250.439 254.456,239.773 250.5,229.5 Z"/></g>
<g><path style="opacity:1" fill="#63a8fc" d="M 386.5,265.5 C 385.833,264.5 385.167,263.5 384.5,262.5C 384.334,253.827 384.5,245.16 385,236.5C 385.833,235.667 386.667,234.833 387.5,234C 403.5,233.333 419.5,233.333 435.5,234C 436.931,234.465 438.097,235.299 439,236.5C 439.945,245.935 439.611,255.268 438,264.5C 437.25,265.126 436.416,265.626 435.5,266C 429.141,266.169 422.807,266.669 416.5,267.5C 415.097,270.875 413.597,274.209 412,277.5C 409.946,274.059 408.446,270.392 407.5,266.5C 400.412,266.795 393.412,266.462 386.5,265.5 Z"/></g>
<g><path style="opacity:1" fill="#6badfc" d="M 111.5,283.5 C 112.344,286.345 113.01,289.345 113.5,292.5C 110.03,293.125 107.196,292.125 105,289.5C 103.877,284.469 101.377,280.303 97.5,277C 90.5802,275.212 83.5802,273.879 76.5,273C 74.85,269.06 74.0167,264.893 74,260.5C 67.9165,254.347 65.2499,247.013 66,238.5C 70.4814,235.58 74.4814,236.247 78,240.5C 80.4583,245.253 83.2916,249.753 86.5,254C 89.0217,254.499 91.5217,254.332 94,253.5C 95.6268,253.625 97.1268,254.125 98.5,255C 101.293,258.081 103.46,261.581 105,265.5C 106.898,271.702 109.065,277.702 111.5,283.5 Z"/></g>
<g><path style="opacity:1" fill="#697ba9" d="M 254.5,230.5 C 255.492,230.328 256.158,230.662 256.5,231.5C 259.04,235.915 261.04,240.582 262.5,245.5C 259.582,240.667 256.916,235.667 254.5,230.5 Z"/></g>
<g><path style="opacity:1" fill="#274386" d="M 424.5,239.5 C 431.401,241.279 431.734,243.279 425.5,245.5C 420.9,244.557 416.233,244.223 411.5,244.5C 411.5,243.167 411.5,241.833 411.5,240.5C 416.032,240.818 420.366,240.485 424.5,239.5 Z"/></g>
<g><path style="opacity:1" fill="#6cadfc" d="M 114.5,290.5 C 114.485,283.41 115.818,276.576 118.5,270C 118.056,268.238 117.556,268.405 117,270.5C 115.864,274.243 114.53,277.91 113,281.5C 112.51,280.207 112.343,278.873 112.5,277.5C 112.234,268.571 113.567,259.904 116.5,251.5C 115.162,245.817 113.662,240.15 112,234.5C 111.333,230.167 111.333,225.833 112,221.5C 116.438,219.025 119.772,220.358 122,225.5C 122.577,234.246 122.244,242.913 121,251.5C 122.659,247.868 124.326,244.201 126,240.5C 127.079,238.606 128.413,238.273 130,239.5C 130.667,245.833 130.667,252.167 130,258.5C 124.017,268.799 118.85,279.465 114.5,290.5 Z"/></g>
<g><path style="opacity:1" fill="#254083" d="M 398.5,237.5 C 401.95,238.737 402.95,241.07 401.5,244.5C 399.673,242.513 398.673,240.179 398.5,237.5 Z"/></g>
<g><path style="opacity:1" fill="#6677a4" d="M 262.5,245.5 C 264.957,248.751 266.624,252.418 267.5,256.5C 265.06,253.28 263.393,249.613 262.5,245.5 Z"/></g>
<g><path style="opacity:1" fill="#243f81" d="M 395.5,239.5 C 396.376,239.369 397.043,239.702 397.5,240.5C 398.984,244.39 400.15,248.39 401,252.5C 403.564,254.851 405.397,257.685 406.5,261C 403.38,261.359 400.88,260.192 399,257.5C 395.396,251.886 394.229,245.886 395.5,239.5 Z"/></g>
<g><path style="opacity:1" fill="#ecf4fa" d="M 415.5,250.5 C 420.438,251.392 425.438,251.726 430.5,251.5C 430.5,252.833 430.5,254.167 430.5,255.5C 425.767,255.223 421.1,255.557 416.5,256.5C 411.752,254.849 411.419,252.849 415.5,250.5 Z"/></g>
<g><path style="opacity:1" fill="#254386" d="M 405.5,254.5 C 409.181,255.857 410.015,258.19 408,261.5C 406.589,259.35 405.755,257.016 405.5,254.5 Z"/></g>
<g><path style="opacity:1" fill="#4e78b8" d="M 83.5,258.5 C 85.34,260.168 87.34,261.668 89.5,263C 93.0063,263.629 96.3396,264.629 99.5,266C 95.7751,265.989 92.1084,265.323 88.5,264C 85.921,262.924 84.2543,261.091 83.5,258.5 Z"/></g>
<g><path style="opacity:1" fill="#536da4" d="M 101.5,247.5 C 105.209,257.566 108.876,267.566 112.5,277.5C 112.343,278.873 112.51,280.207 113,281.5C 114.53,277.91 115.864,274.243 117,270.5C 117.556,268.405 118.056,268.238 118.5,270C 115.818,276.576 114.485,283.41 114.5,290.5C 115.427,300.794 115.76,311.128 115.5,321.5C 114.523,324.287 114.19,327.287 114.5,330.5C 114.167,330.5 113.833,330.5 113.5,330.5C 113.5,329.833 113.5,329.167 113.5,328.5C 111.904,322.642 109.238,317.309 105.5,312.5C 106.355,311.707 107.189,312.04 108,313.5C 109.92,316.339 111.587,319.339 113,322.5C 113.483,321.552 113.649,320.552 113.5,319.5C 114.679,310.518 114.679,301.518 113.5,292.5C 113.01,289.345 112.344,286.345 111.5,283.5C 109.228,272.018 105.562,261.018 100.5,250.5C 99.1192,246.736 97.4526,243.069 95.5,239.5C 95.8457,238.304 96.3457,238.304 97,239.5C 98.2742,242.391 99.7742,245.058 101.5,247.5 Z"/></g>
<g><path style="opacity:1" fill="#5f73a0" d="M 267.5,256.5 C 269.497,259.16 270.997,262.16 272,265.5C 272.774,267.403 272.44,269.07 271,270.5C 270.698,265.58 269.531,260.913 267.5,256.5 Z"/></g>
<g><path style="opacity:1" fill="#1c82fb" d="M 163.5,270.5 C 158.864,291.584 156.698,312.917 157,334.5C 159.295,341.962 164.129,346.962 171.5,349.5C 171.5,349.833 171.5,350.167 171.5,350.5C 171.5,355.167 171.5,359.833 171.5,364.5C 171.167,364.5 170.833,364.5 170.5,364.5C 163.5,364.5 156.5,364.5 149.5,364.5C 149.5,339.167 149.5,313.833 149.5,288.5C 149.898,283.807 151.398,279.474 154,275.5C 156.285,272.108 159.452,270.441 163.5,270.5 Z"/></g>
<g><path style="opacity:1" fill="#6dadfb" d="M 117.5,330.5 C 116.5,330.5 115.5,330.5 114.5,330.5C 114.19,327.287 114.523,324.287 115.5,321.5C 115.369,322.239 115.536,322.906 116,323.5C 117.203,313.71 119.87,304.376 124,295.5C 127.907,292.979 131.907,290.645 136,288.5C 138.44,282.742 139.94,276.742 140.5,270.5C 143.708,277.999 144.208,285.665 142,293.5C 137.954,295.928 134.454,298.928 131.5,302.5C 135.015,306.972 136.182,311.972 135,317.5C 132.061,319.385 128.895,320.885 125.5,322C 121.93,324.068 119.263,326.901 117.5,330.5 Z"/></g>
<g><path style="opacity:1" fill="#6273a2" d="M 210.5,228.5 C 209.46,243.151 209.293,257.817 210,272.5C 214.387,276.887 218.721,281.221 223,285.5C 222,292.833 221,300.167 220,307.5C 223.574,315.653 227.907,323.32 233,330.5C 233.494,328.866 233.66,327.199 233.5,325.5C 234.473,327.948 234.806,330.615 234.5,333.5C 232.164,331.996 230.331,329.996 229,327.5C 225.412,321.325 222.078,314.991 219,308.5C 219.408,300.465 220.075,292.465 221,284.5C 216,280.833 211.667,276.5 208,271.5C 207.5,257.493 207.667,243.493 208.5,229.5C 209.167,229.167 209.833,228.833 210.5,228.5 Z"/></g>
<g><path style="opacity:1" fill="#6b7cab" d="M 264.5,283.5 C 263.535,279.696 264.702,276.363 268,273.5C 266.73,276.674 265.563,280.008 264.5,283.5 Z"/></g>
<g><path style="opacity:1" fill="#6cadfc" d="M 113.5,319.5 C 113.649,320.552 113.483,321.552 113,322.5C 111.587,319.339 109.92,316.339 108,313.5C 107.189,312.04 106.355,311.707 105.5,312.5C 109.238,317.309 111.904,322.642 113.5,328.5C 108.318,320.515 100.985,315.348 91.5,313C 80.673,307.299 81.0064,302.299 92.5,298C 89.6667,295.167 86.8333,292.333 84,289.5C 83.5065,287.866 83.3398,286.199 83.5,284.5C 85.9892,284.298 88.3225,284.798 90.5,286C 101.539,294.868 109.205,306.035 113.5,319.5 Z"/></g>
<g><path style="opacity:1" fill="#6778a6" d="M 264.5,283.5 C 266.892,286.598 269.058,289.931 271,293.5C 271.489,303.062 270.156,312.396 267,321.5C 266.148,325.264 264.648,328.597 262.5,331.5C 262.5,330.833 262.5,330.167 262.5,329.5C 266.313,319.415 268.98,308.915 270.5,298C 269.177,292.859 267.177,288.025 264.5,283.5 Z"/></g>
<g><path style="opacity:1" fill="#f5f7fa" d="M 447.5,285.5 C 448.376,285.369 449.043,285.702 449.5,286.5C 436.487,312.527 423.487,338.527 410.5,364.5C 372.833,364.5 335.167,364.5 297.5,364.5C 308.623,338.254 320.29,312.254 332.5,286.5C 370.828,285.5 409.161,285.167 447.5,285.5 Z"/></g>
<g><path style="opacity:1" fill="#4f96ed" d="M 149.5,288.5 C 149.5,313.833 149.5,339.167 149.5,364.5C 156.5,364.5 163.5,364.5 170.5,364.5C 163.167,365.833 155.833,365.833 148.5,364.5C 148.5,357.5 148.5,350.5 148.5,343.5C 148.17,324.992 148.503,306.659 149.5,288.5 Z"/></g>
<g><path style="opacity:1" fill="#6374a2" d="M 193.5,319.5 C 194.522,301.424 196.355,283.424 199,265.5C 198.481,283.75 196.648,301.75 193.5,319.5 Z"/></g>
<g><path style="opacity:0.295" fill="#fcfefd" d="M 470.5,288.5 C 471.662,304.661 471.828,320.995 471,337.5C 470.454,340.379 469.621,343.046 468.5,345.5C 470.339,326.566 471.006,307.566 470.5,288.5 Z"/></g>
<g><path style="opacity:1" fill="#4a71b2" d="M 125.5,298.5 C 126.043,298.56 126.376,298.893 126.5,299.5C 125.721,304.113 125.221,308.78 125,313.5C 124.581,314.672 123.915,315.672 123,316.5C 124.01,310.598 124.843,304.598 125.5,298.5 Z"/></g>
<g><path style="opacity:1" fill="#5a6b9b" d="M 279.5,346.5 C 277.901,346.768 276.568,346.434 275.5,345.5C 277.327,317.851 278.16,289.851 278,261.5C 279.237,289.82 279.737,318.153 279.5,346.5 Z"/></g>
<g><path style="opacity:1" fill="#dadee9" d="M 371.5,322.5 C 376.913,322.229 382.246,322.729 387.5,324C 391.792,328.18 391.126,331.513 385.5,334C 377.915,337.65 370.748,337.15 364,332.5C 363.333,330.833 363.333,329.167 364,327.5C 366.17,325.177 368.67,323.51 371.5,322.5 Z"/></g>
<g><path style="opacity:1" fill="#6678a5" d="M 193.5,319.5 C 193.227,321.451 193.893,322.951 195.5,324C 208.515,328.51 221.515,333.01 234.5,337.5C 234.5,337.833 234.5,338.167 234.5,338.5C 216.827,333.221 199.494,327.054 182.5,320C 182.833,319.833 183.167,319.667 183.5,319.5C 186.314,321.105 189.314,322.105 192.5,322.5C 192.263,321.209 192.596,320.209 193.5,319.5 Z"/></g>
<g><path style="opacity:1" fill="#fdfefe" d="M 113.5,330.5 C 113.833,330.5 114.167,330.5 114.5,330.5C 115.5,330.5 116.5,330.5 117.5,330.5C 123.167,330.5 128.833,330.5 134.5,330.5C 133.589,339.528 132.423,348.528 131,357.5C 129.233,360.772 126.733,363.105 123.5,364.5C 117.167,364.5 110.833,364.5 104.5,364.5C 101.039,362.525 98.8727,359.525 98,355.5C 97.0772,347.116 95.9105,338.782 94.5,330.5C 100.833,330.5 107.167,330.5 113.5,330.5 Z"/></g>
<g><path style="opacity:1" fill="#f99c8d" d="M 247.5,344.5 C 252.5,344.5 257.5,344.5 262.5,344.5C 265.86,344.616 269.193,344.949 272.5,345.5C 271.77,347.006 271.437,348.34 271.5,349.5C 270.448,349.351 269.448,349.517 268.5,350C 270.167,351 271.833,352 273.5,353C 271.189,352.845 268.856,352.845 266.5,353C 269.726,353.885 272.726,355.219 275.5,357C 274.906,357.464 274.239,357.631 273.5,357.5C 270.167,357.167 266.833,356.833 263.5,356.5C 263.167,356.5 262.833,356.5 262.5,356.5C 255.687,355.509 248.687,355.175 241.5,355.5C 241.5,355.167 241.5,354.833 241.5,354.5C 241.977,350.207 243.977,346.873 247.5,344.5 Z"/></g>
<g><path style="opacity:1" fill="#233a79" d="M 171.5,350.5 C 186.689,355.766 202.355,358.433 218.5,358.5C 218.5,360.5 218.5,362.5 218.5,364.5C 202.833,364.5 187.167,364.5 171.5,364.5C 171.5,359.833 171.5,355.167 171.5,350.5 Z"/></g>
<g><path style="opacity:1" fill="#e6948d" d="M 272.5,345.5 C 273.5,345.5 274.5,345.5 275.5,345.5C 276.568,346.434 277.901,346.768 279.5,346.5C 283.927,349.593 287.26,353.593 289.5,358.5C 288.833,358.5 288.167,358.5 287.5,358.5C 285.869,354.696 283.202,352.196 279.5,351C 282.039,353.37 284.372,355.87 286.5,358.5C 283.833,358.5 281.167,358.5 278.5,358.5C 277.826,356.976 276.826,355.642 275.5,354.5C 276.716,353.904 278.049,353.737 279.5,354C 276.809,352.395 274.142,350.895 271.5,349.5C 271.437,348.34 271.77,347.006 272.5,345.5 Z"/></g>
<g><path style="opacity:1" fill="#81607b" d="M 287.5,358.5 C 287.167,358.5 286.833,358.5 286.5,358.5C 284.372,355.87 282.039,353.37 279.5,351C 283.202,352.196 285.869,354.696 287.5,358.5 Z"/></g>
<g><path style="opacity:1" fill="#6274a2" d="M 171.5,350.5 C 171.5,350.167 171.5,349.833 171.5,349.5C 192.361,355.72 213.694,358.387 235.5,357.5C 230.025,358.489 224.358,358.822 218.5,358.5C 202.355,358.433 186.689,355.766 171.5,350.5 Z"/></g>
<g><path style="opacity:1" fill="#a27183" d="M 271.5,349.5 C 274.142,350.895 276.809,352.395 279.5,354C 278.049,353.737 276.716,353.904 275.5,354.5C 276.826,355.642 277.826,356.976 278.5,358.5C 276.833,358.5 275.167,358.5 273.5,358.5C 273.5,358.167 273.5,357.833 273.5,357.5C 274.239,357.631 274.906,357.464 275.5,357C 272.726,355.219 269.726,353.885 266.5,353C 268.856,352.845 271.189,352.845 273.5,353C 271.833,352 270.167,351 268.5,350C 269.448,349.517 270.448,349.351 271.5,349.5 Z"/></g>
<g><path style="opacity:1" fill="#d8dce8" d="M 393.5,283.5 C 411.864,282.847 429.864,283.513 447.5,285.5C 409.161,285.167 370.828,285.5 332.5,286.5C 320.29,312.254 308.623,338.254 297.5,364.5C 271.167,364.5 244.833,364.5 218.5,364.5C 218.5,362.5 218.5,360.5 218.5,358.5C 224.358,358.822 230.025,358.489 235.5,357.5C 237.167,357.5 238.833,357.5 240.5,357.5C 240.263,356.209 240.596,355.209 241.5,354.5C 241.5,354.833 241.5,355.167 241.5,355.5C 241.5,356.5 241.5,357.5 241.5,358.5C 248.913,359.128 255.913,358.461 262.5,356.5C 262.833,356.5 263.167,356.5 263.5,356.5C 266.337,358.402 269.671,359.069 273.5,358.5C 275.167,358.5 276.833,358.5 278.5,358.5C 281.167,358.5 283.833,358.5 286.5,358.5C 286.833,358.5 287.167,358.5 287.5,358.5C 288.167,358.5 288.833,358.5 289.5,358.5C 290.978,358.762 292.311,358.429 293.5,357.5C 297.121,349.929 300.454,342.262 303.5,334.5C 311.717,318.068 319.383,301.401 326.5,284.5C 348.823,283.5 371.157,283.167 393.5,283.5 Z"/></g>
<g><path style="opacity:1" fill="#fdfaf8" d="M 241.5,355.5 C 248.687,355.175 255.687,355.509 262.5,356.5C 255.913,358.461 248.913,359.128 241.5,358.5C 241.5,357.5 241.5,356.5 241.5,355.5 Z"/></g>
<g><path style="opacity:1" fill="#283b76" d="M 263.5,356.5 C 266.833,356.833 270.167,357.167 273.5,357.5C 273.5,357.833 273.5,358.167 273.5,358.5C 269.671,359.069 266.337,358.402 263.5,356.5 Z"/></g>
<g><path style="opacity:1" fill="#b7bfd4" d="M 218.5,365.5 C 218.5,365.167 218.5,364.833 218.5,364.5C 244.833,364.5 271.167,364.5 297.5,364.5C 335.167,364.5 372.833,364.5 410.5,364.5C 427.167,364.5 443.833,364.5 460.5,364.5C 461.167,364.5 461.833,364.5 462.5,364.5C 463.5,364.5 464.5,364.5 465.5,364.5C 465.5,367.167 465.5,369.833 465.5,372.5C 463.5,372.5 461.5,372.5 459.5,372.5C 460.919,371.549 462.585,371.216 464.5,371.5C 464.5,369.5 464.5,367.5 464.5,365.5C 382.5,365.5 300.5,365.5 218.5,365.5 Z"/></g>
<g><path style="opacity:1" fill="#707faa" d="M 84.5,364.5 C 91.1667,364.5 97.8333,364.5 104.5,364.5C 110.833,364.5 117.167,364.5 123.5,364.5C 131.833,364.5 140.167,364.5 148.5,364.5C 155.833,365.833 163.167,365.833 170.5,364.5C 170.833,364.5 171.167,364.5 171.5,364.5C 187.167,364.5 202.833,364.5 218.5,364.5C 218.5,364.833 218.5,365.167 218.5,365.5C 218.5,367.833 218.5,370.167 218.5,372.5C 216.5,372.5 214.5,372.5 212.5,372.5C 167.167,372.5 121.833,372.5 76.5,372.5C 74.1667,372.5 71.8333,372.5 69.5,372.5C 69.5,369.833 69.5,367.167 69.5,364.5C 74.5,364.5 79.5,364.5 84.5,364.5 Z"/></g>
<g><path style="opacity:1" fill="#99a2c0" d="M 218.5,365.5 C 300.5,365.5 382.5,365.5 464.5,365.5C 464.5,367.5 464.5,369.5 464.5,371.5C 462.585,371.216 460.919,371.549 459.5,372.5C 459.5,382.167 459.5,391.833 459.5,401.5C 377.167,401.5 294.833,401.5 212.5,401.5C 212.5,401.167 212.5,400.833 212.5,400.5C 294.5,400.5 376.5,400.5 458.5,400.5C 458.5,392.5 458.5,384.5 458.5,376.5C 458.5,375.167 458.5,373.833 458.5,372.5C 378.5,372.5 298.5,372.5 218.5,372.5C 218.5,370.167 218.5,367.833 218.5,365.5 Z"/></g>
<g><path style="opacity:1" fill="#415281" d="M 76.5,372.5 C 121.833,372.5 167.167,372.5 212.5,372.5C 212.5,373.833 212.5,375.167 212.5,376.5C 167.167,376.5 121.833,376.5 76.5,376.5C 76.5,375.167 76.5,373.833 76.5,372.5 Z"/></g>
<g><path style="opacity:1" fill="#5a6993" d="M 212.5,372.5 C 214.5,372.5 216.5,372.5 218.5,372.5C 298.5,372.5 378.5,372.5 458.5,372.5C 458.5,373.833 458.5,375.167 458.5,376.5C 376.5,376.5 294.5,376.5 212.5,376.5C 212.5,375.167 212.5,373.833 212.5,372.5 Z"/></g>
<g><path style="opacity:1" fill="#7988b1" d="M 212.5,376.5 C 294.5,376.5 376.5,376.5 458.5,376.5C 458.5,384.5 458.5,392.5 458.5,400.5C 376.5,400.5 294.5,400.5 212.5,400.5C 212.5,392.5 212.5,384.5 212.5,376.5 Z"/></g>
<g><path style="opacity:1" fill="#596b9b" d="M 76.5,376.5 C 121.833,376.5 167.167,376.5 212.5,376.5C 212.5,384.5 212.5,392.5 212.5,400.5C 212.5,400.833 212.5,401.167 212.5,401.5C 166.997,401.832 121.664,401.499 76.5,400.5C 76.5,392.5 76.5,384.5 76.5,376.5 Z"/></g>
</svg>
